<svg height="512" viewBox="0 0 512 512" width="512" xmlns="http://www.w3.org/2000/svg">
<g id="Filled_outline" data-name="Filled outline">
<path d="m256 120a112 112 0 0 0 -112 112v104a32 32 0 0 0 32 32h160a32 32 0 0 0 32-32v-104a112 112 0 0 0 -112-112z" fill="#f99e0c"/><path d="m224 344h64v56h-64z" fill="#fdc8a2"/><path d="m224 168h64a48 48 0 0 1 48 48v72a80 80 0 0 1 -80 80 80 80 0 0 1 -80-80v-72a48 48 0 0 1 48-48z" fill="#fdc8a2"/><circle cx="216" cy="264" fill="#98543a" r="16"/><circle cx="296" cy="264" fill="#98543a" r="16"/><path d="m232 296h48a0 0 0 0 1 0 0v8a24 24 0 0 1 -24 24 24 24 0 0 1 -24-24v-8a0 0 0 0 1 0 0z" fill="#de5540"/><path d="m368 232v104a32 32 0 0 1 -32 32v-120l-16-42.67-8-21.33-8 8-5.09 5.09a173.815 173.815 0 0 1 -122.91 50.91v120a31.991 31.991 0 0 1 -32-32v-104a111.98 111.98 0 0 1 160-101.21c1.19.56 2.37 1.15 3.54 1.76a109.09 109.09 0 0 1 12.46 7.53 111.99 111.99 0 0 1 48 91.92z" fill="#ffb431"/><rect fill="#dfdfdd" height="64" rx="16" width="224" x="144" y="120"/><path d="m344 120h-176a80 80 0 0 1 80-80h112a16 16 0 0 1 16 16 16 16 0 0 1 -6.4 12.8 64 64 0 0 0 -25.6 51.2z" fill="#de5540"/><path d="m407.473 33.95c15.412 5.276 21.451 24.167 12.034 37.643-.175 16.527-15.987 28.207-31.507 23.264-15.52 4.938-31.332-6.737-31.507-23.264-9.417-13.476-3.378-32.367 12.034-37.643a24.03 24.03 0 0 1 38.946 0z" fill="#dfdfdd"/><rect fill="#dfdfdd" height="40" rx="8" width="72" x="24" y="264"/><path d="m344 496v-40a136 136 0 0 0 136-136v-16h-56v8a88 88 0 0 1 -88 88h-160a88 88 0 0 1 -88-88v-8h-56v16a136 136 0 0 0 136 136v40" fill="#de5540"/><rect fill="#dfdfdd" height="40" rx="8" transform="matrix(-1 0 0 -1 904 568)" width="72" x="416" y="264"/><path d="m88 264h-56v-56a16 16 0 0 1 16-16h24a16 16 0 0 1 16 16v16l3.8-3.8a14.143 14.143 0 0 1 21.767 2.155 14.143 14.143 0 0 1 -1.767 17.845z" fill="#96b268"/><path d="m424 264h56v-56a16 16 0 0 0 -16-16h-24a16 16 0 0 0 -16 16v16l-3.8-3.8a14.143 14.143 0 0 0 -21.767 2.155 14.143 14.143 0 0 0 1.767 17.845z" fill="#96b268"/><rect fill="#8da662" height="40" rx="8" width="128" x="192" y="360"/><path d="m216 400h40v72h-40z" fill="#88a35a"/><path d="m216 432h40v16h-40z" fill="#96b268"/><path d="m296 488h-40l-8-128h40z" fill="#96b268"/><path d="m294.5 464h-40l-1-16h40z" fill="#aabf86"/><path d="m296 280a16 16 0 1 1 16-16 16.019 16.019 0 0 1 -16 16zm-8 16v8a32 32 0 0 1 -64 0v-8a8 8 0 0 1 8-8h48a8 8 0 0 1 8 8zm-16 8h-32a16 16 0 0 0 32 0zm-24-224v-16a56.087 56.087 0 0 0 -41.706 18.661l11.916 10.678a40.066 40.066 0 0 1 29.79-13.339zm104 383.778a143.878 143.878 0 0 0 86.681-35.273l-10.524-12.051a127.912 127.912 0 0 1 -84.157 31.546 8 8 0 0 0 -8 8v40h16zm144-191.778v24a16 16 0 0 1 -8 13.835v10.165a143.831 143.831 0 0 1 -36.021 95.28l-11.994-10.591a127.839 127.839 0 0 0 32.015-84.689v-8h-40a96.108 96.108 0 0 1 -96 96h-36.984l4.968 79.5a8 8 0 0 1 -7.984 8.5h-40a8 8 0 0 1 -7.984-7.5l-.532-8.5h-31.484a8 8 0 0 1 -8-8v-64h-32a96.02 96.02 0 0 1 -96-96h-40v8a128.145 128.145 0 0 0 128 128 8 8 0 0 1 8 8v40h-16v-32.22c-75.694-4.165-136-67.063-136-143.78v-10.165a16 16 0 0 1 -8-13.835v-24a16 16 0 0 1 8-13.835v-50.165a24.027 24.027 0 0 1 24-24h24a24.027 24.027 0 0 1 24 24v.821a22.148 22.148 0 0 1 21.459 37.034l-16.628 16.628a15.892 15.892 0 0 1 3.169 9.517v24a16 16 0 0 1 -8 13.835v2.165a80.019 80.019 0 0 0 80 80h8v-16h-8a39.991 39.991 0 0 1 -40-40v-104a118.9 118.9 0 0 1 8.883-45.377 23.962 23.962 0 0 1 -8.883-18.623v-32a24.027 24.027 0 0 1 24-24h.367a88.02 88.02 0 0 1 20.975-49.454l12.117 10.454a72 72 0 0 0 -17.013 39h160.005a71.7 71.7 0 0 1 12.8-33.6 33.492 33.492 0 0 1 -.644-4.281 32.628 32.628 0 0 1 -3.244-26.119h-97.363a71.4 71.4 0 0 0 -43.2 14.4l-9.61-12.8a87.276 87.276 0 0 1 52.81-17.6h107.863a32.168 32.168 0 0 1 7.746-4.723 32.016 32.016 0 0 1 48.782 0 32.2 32.2 0 0 1 17.968 19.792 32.66 32.66 0 0 1 -2.965 27.05 32.384 32.384 0 0 1 -13.394 23.781 31.636 31.636 0 0 1 -26 5.25 31.644 31.644 0 0 1 -26-5.25 33.116 33.116 0 0 1 -3.894-3.3c-.062.121-.132.239-.193.361a56.17 56.17 0 0 0 -5.313 17.058 24.024 24.024 0 0 1 23.4 23.981v32a24.027 24.027 0 0 1 -24 24h-28.457l19.947 53.191a8 8 0 0 1 .51 2.809v110.629a24.042 24.042 0 0 0 16-22.629v-104a104.188 104.188 0 0 0 -3.964-28.541l15.389-4.381a120.167 120.167 0 0 1 4.575 32.922v104a40.045 40.045 0 0 1 -40 40h-8v16h8a80.091 80.091 0 0 0 80-80v-2.165a16 16 0 0 1 -8-13.835v-24a15.892 15.892 0 0 1 3.169-9.517l-16.628-16.628a22.153 22.153 0 0 1 21.459-37.034v-.821a24.027 24.027 0 0 1 24-24h24a24.027 24.027 0 0 1 24 24v50.165a16 16 0 0 1 8 13.835zm-132.949-204.99a8 8 0 0 1 1.442 4.5 16.6 16.6 0 0 0 6.884 13.428 15.818 15.818 0 0 0 14.2 2.3 8.014 8.014 0 0 1 4.852 0 15.816 15.816 0 0 0 14.2-2.3 16.6 16.6 0 0 0 6.884-13.428 8 8 0 0 1 1.442-4.5 16.813 16.813 0 0 0 2.2-14.977 16.321 16.321 0 0 0 -10.266-10.514 8 8 0 0 1 -3.867-2.847 16.03 16.03 0 0 0 -26.03 0 8 8 0 0 1 -3.867 2.847 16.321 16.321 0 0 0 -10.266 10.514 16.813 16.813 0 0 0 2.192 14.977zm-323.051 188.99h44.687l21.458-21.458a6.194 6.194 0 0 0 -3.739-10.456c-3.914-.387-6.292 3.114-8.749 5.571l-16 16-11.314-11.314 13.657-13.657v-12.686a8.009 8.009 0 0 0 -8-8h-24a8.009 8.009 0 0 0 -8 8zm48.01 40-.01-24h-56v24zm63.99-128a8.009 8.009 0 0 0 8 8h8v-32h16v32h16v-32h16v32h16v-32h16v32h16v-32h16v32h16v-32h16v32h16v-32h16v32h8a8.009 8.009 0 0 0 8-8v-32a8.009 8.009 0 0 0 -8-8h-192a8.009 8.009 0 0 0 -8 8zm140.672 24h-32.461a280.466 280.466 0 0 1 -78.3 30.842l-3.16-15.684a264.628 264.628 0 0 0 45.972-15.158h-64.754a103.017 103.017 0 0 0 -7.969 40v104a24.033 24.033 0 0 0 16 22.642v-110.642a8 8 0 0 1 8-8 164.716 164.716 0 0 0 116.672-48zm-96.534 160.491a88.234 88.234 0 0 1 -12.138-13.902v21.411h2.165a16.037 16.037 0 0 1 9.973-7.509zm45.846 39.509-1.5-24h-40.484v24zm-17.984 16v24h20.484l-1.5-24zm22.484 56-1-16h-21.484v16zm15.032-16h23.968l-5-80h-23.968zm25.968 32-1-16h-23.968l1 16zm40.516-192v-38.549l-19.128-51.009-4.305 4.305a180.748 180.748 0 0 1 -81.229 47.053 16 16 0 1 1 -19.75 4.124 183.5 183.5 0 0 1 -19.588 1.904v32.172a71.5 71.5 0 0 0 39.009 64h65.982a71.5 71.5 0 0 0 39.009-64zm-16 80h-15.484l1.5 24h13.984zm13.835-8h2.165v-21.411a88.234 88.234 0 0 1 -12.138 13.9 16.037 16.037 0 0 1 9.973 7.511zm101.478-104h44.687v-48a8.009 8.009 0 0 0 -8-8h-24a8.009 8.009 0 0 0 -8 8v12.686l13.657 13.657-11.314 11.314-16-16c-2.41-2.41-4.909-5.959-8.763-5.57a5.9 5.9 0 0 0 -4.415 2.759 6.154 6.154 0 0 0 .692 7.7zm52.687 16h-56v24h56z"/></g></svg>