<?xml version="1.0" encoding="iso-8859-1"?>
<!-- Generator: Adobe Illustrator 19.0.0, SVG Export Plug-In . SVG Version: 6.00 Build 0)  -->
<svg version="1.1" id="Capa_1" xmlns="http://www.w3.org/2000/svg" xmlns:xlink="http://www.w3.org/1999/xlink" x="0px" y="0px"
	 viewBox="0 0 512.001 512.001" style="enable-background:new 0 0 512.001 512.001;" xml:space="preserve">
<path style="fill:#378B4F;" d="M419.691,10.782c112.917,112.917,112.917,295.991,0,408.908s-295.991,112.917-408.908,0
	L419.691,10.782z"/>
<path style="fill:#2B743F;" d="M410.534,20.536c107.695,107.695,97.685,279.416-6.448,383.548s-275.854,114.143-383.548,6.448
	L410.534,20.536z"/>
<path style="fill:#CD2A01;" d="M401.252,29.22c95.133,95.133,81.37,263.136-13.763,358.269S124.353,496.384,29.22,401.252
	L401.252,29.22z"/>
<path style="fill:#FF5023;" d="M373.714,56.758c81.049,81.049,69.324,224.181-11.725,305.231s-224.182,92.774-305.232,11.725
	L373.714,56.758z"/>
<path d="M425.081,5.39L419.69,0L0.001,419.69l5.39,5.391c56.051,56.051,130.576,86.92,209.844,86.92s153.793-30.869,209.844-86.92
	C481.131,369.028,512,294.505,512,215.237S481.132,61.442,425.081,5.39z M401.151,40.101
	c40.188,43.293,60.37,102.577,56.955,167.854c-3.442,65.807-31.146,129.28-76.009,174.141
	c-48.534,48.535-117.035,76.371-187.938,76.371c-59.729,0-114.115-20.298-154.057-57.32L401.151,40.101z M414.299,414.298
	c-53.172,53.173-123.865,82.455-199.063,82.455c-72.649,0-141.098-27.335-193.601-77.136l7.693-7.693
	c42.809,39.896,101.016,61.789,164.834,61.789c35.995,0,72.92-7.168,106.783-20.729c35.225-14.106,66.157-34.329,91.936-60.108
	c47.493-47.494,76.817-114.604,80.452-184.127c1.817-34.739-2.73-68.146-13.516-99.292c-10.548-30.46-26.649-57.378-47.888-80.138
	l7.689-7.689c49.801,52.503,77.136,120.953,77.136,193.602C496.754,290.431,467.471,361.126,414.299,414.298z"/>
<rect x="98.784" y="365.489" transform="matrix(0.7071 0.7071 -0.7071 0.7071 297.2854 28.5146)" width="30.877" height="15.247"/>
<rect x="163.509" y="300.766" transform="matrix(-0.7071 -0.7071 0.7071 -0.7071 87.4197 652.9885)" width="30.878" height="15.247"/>
<rect x="228.226" y="236.032" transform="matrix(-0.7071 -0.7071 0.7071 -0.7071 243.6712 588.2431)" width="30.877" height="15.247"/>
<rect x="292.943" y="171.322" transform="matrix(-0.7071 -0.7071 0.7071 -0.7071 399.9071 523.537)" width="30.877" height="15.247"/>
<rect x="357.663" y="106.604" transform="matrix(-0.7071 -0.7071 0.7071 -0.7071 556.1533 458.8208)" width="30.877" height="15.247"/>
<rect x="174.466" y="376.44" transform="matrix(-0.7071 -0.7071 0.7071 -0.7071 52.6131 789.9189)" width="30.877" height="15.247"/>
<rect x="239.177" y="311.725" transform="matrix(0.7071 0.7071 -0.7071 0.7071 300.3888 -86.505)" width="30.877" height="15.247"/>
<rect x="303.916" y="247.005" transform="matrix(0.7071 0.7071 -0.7071 0.7071 273.5859 -151.2386)" width="30.877" height="15.247"/>
<rect x="368.631" y="182.287" transform="matrix(0.7071 0.7071 -0.7071 0.7071 246.7783 -215.9548)" width="30.877" height="15.247"/>
<rect x="247.053" y="384.311" transform="matrix(0.7071 0.7071 -0.7071 0.7071 354.0214 -70.8143)" width="30.876" height="15.247"/>
<rect x="311.771" y="319.6" transform="matrix(0.7071 0.7071 -0.7071 0.7071 327.2194 -135.5304)" width="30.877" height="15.247"/>
<rect x="376.49" y="254.865" transform="matrix(0.7071 0.7071 -0.7071 0.7071 300.4004 -200.2538)" width="30.877" height="15.247"/>
<rect x="78.949" y="110.402" transform="matrix(-0.7071 -0.7071 0.7071 -0.7071 118.0222 284.937)" width="78.149" height="15.247"/>
<rect x="213.447" y="26.152" width="15.247" height="78.151"/>
<rect x="26.152" y="213.435" width="78.15" height="15.247"/>
<g>
</g>
<g>
</g>
<g>
</g>
<g>
</g>
<g>
</g>
<g>
</g>
<g>
</g>
<g>
</g>
<g>
</g>
<g>
</g>
<g>
</g>
<g>
</g>
<g>
</g>
<g>
</g>
<g>
</g>
</svg>
