<?xml version="1.0" encoding="iso-8859-1"?>
<!-- Generator: Adobe Illustrator 19.0.0, SVG Export Plug-In . SVG Version: 6.00 Build 0)  -->
<svg version="1.1" id="Capa_1" xmlns="http://www.w3.org/2000/svg" xmlns:xlink="http://www.w3.org/1999/xlink" x="0px" y="0px"
	 viewBox="0 0 512 512" style="enable-background:new 0 0 512 512;" xml:space="preserve">
<g>
	<polygon style="fill:#57555C;" points="462,170 462,220.7 442,240.7 422,220.7 422,170 	"/>
	<path style="fill:#57555C;" d="M316,439v63c-9.595,0-128.341,0-138,0v-63c0-11.05,8.95-20,20-20c4.81,0,93.187,0,98,0
		C307.05,419,316,427.95,316,439z"/>
</g>
<path style="fill:#FD6244;" d="M226,30v80h-40V30c0-11.135,9.041-20,20-20C217.04,10,226,18.96,226,30z"/>
<rect x="71" y="170" style="fill:#57555C;" width="45" height="60"/>
<g>
	<polygon style="fill:#FD6244;" points="357,118.115 357,170 422,170 462,170 502,170 502,130 	"/>
	<polygon style="fill:#FD6244;" points="84,119.863 84,170 116,170 156,170 156,110 	"/>
</g>
<path d="M136,449c-5.52,0-10,4.48-10,10s4.48,10,10,10s10-4.48,10-10S141.52,449,136,449z"/>
<path d="M166,459c0,5.523,4.477,10,10,10h100c5.523,0,10-4.477,10-10s-4.477-10-10-10H176C170.477,449,166,453.477,166,459z"/>
<path d="M505.583,120.662L225.556,7.264C220.11,2.569,213.25,0,206,0c-10.4,0-20.076,5.499-25.502,14.23L4.791,121.464
	C1.825,123.272,0,126.58,0,130v40c0,5.523,4.477,10,10,10h10v50c0,5.523,4.477,10,10,10h86c5.523,0,10-4.477,10-10v-50h20
	c0,10.184,0,222.341,0,229h-30c-16.542,0-30,13.458-30,30v63c0,5.522,4.477,10,10,10h220c5.523,0,10-4.478,10-10v-63
	c0-16.542-13.458-30-30-30h-30c0-10.425,0-218.708,0-229h146v40.7c0,2.652,1.054,5.196,2.929,7.071L432,244.843v59.871
	c-11.641,4.127-20,15.249-20,28.287c0,16.542,13.458,30,30,30c11.561,0,22.216-6.758,27.146-17.217
	c2.354-4.996,0.213-10.954-4.783-13.309c-4.997-2.354-10.955-0.213-13.309,4.783C449.41,340.746,445.856,343,442,343
	c-5.514,0-10-4.486-10-10s4.486-10,10-10c5.523,0,10-4.477,10-10v-68.157l17.071-17.071c1.875-1.875,2.929-4.419,2.929-7.071V180h30
	c5.523,0,10-4.477,10-10v-40c0-0.015-0.002-0.029-0.002-0.043C511.979,125.758,509.334,122.117,505.583,120.662z M20,160v-21.276
	l126-17.26V160C102.008,160,117.037,160,20,160z M166,237.656L232.354,306H166V237.656z M179.646,223H246v68.344L179.646,223z
	 M166,203c0-6.347,0-60.928,0-68.344L232.354,203H166z M176,100h-20c-0.047,0-0.093,0.006-0.14,0.007
	c-0.128,0.002-0.256,0.01-0.385,0.016c-0.13,0.007-0.26,0.011-0.39,0.023c-0.101,0.009-0.2,0.023-0.299,0.035
	c-0.048,0.006-0.096,0.005-0.144,0.012l-98.566,13.502L176,40.407V100z M166,340.656L232.354,409H166V340.656z M179.646,326H246
	v68.344L179.646,326z M179.646,120H186c5.686,0,51.787,0,60,0c0,7.166,0,60.844,0,68.344L179.646,120z M256.811,100.033
	c-0.129-0.01-0.257-0.006-0.386-0.011C256.282,100.015,256.143,100,256,100h-20V33.071l201.665,81.665L256.811,100.033z M206,20
	c5.491,0,10,4.455,10,10v70h-20V30C196,24.297,200.678,20,206,20z M106,220H40v-40h66V220z M306,439v53H106v-53
	c0-5.514,4.486-10,10-10c4.814,0,175.19,0,180,0C301.514,429,306,433.486,306,439z M452,216.558l-10,10l-10-10V180h20V216.558z
	 M492,160H266v-39.154l226,18.374V160z"/>
<g>
</g>
<g>
</g>
<g>
</g>
<g>
</g>
<g>
</g>
<g>
</g>
<g>
</g>
<g>
</g>
<g>
</g>
<g>
</g>
<g>
</g>
<g>
</g>
<g>
</g>
<g>
</g>
<g>
</g>
</svg>
