<?xml version="1.0" encoding="UTF-8"?>
<svg xmlns="http://www.w3.org/2000/svg" id="Outline" viewBox="0 0 512 512" width="512" height="512"><path d="M490.53,200.41l-48-16a7.992,7.992,0,0,0-4.883-.056L343.49,213.325c-1.372-13.932-5.863-29.415-17.47-40.431A80.127,80.127,0,0,0,384,96V72a8,8,0,0,0-16,0V96a64.08,64.08,0,0,1-60.7,63.916c-.161-.342-.328-.675-.5-1.008A63.938,63.938,0,0,0,287.97,64.593c.014-.2.03-.393.03-.593a20.748,20.748,0,0,1,17.044-20.422l64.387-11.707a8,8,0,1,0-2.862-15.742L302.182,27.836a36.737,36.737,0,0,0-29.71,30.324,63.887,63.887,0,0,0-32.944,0,36.737,36.737,0,0,0-29.711-30.324L145.431,16.129a8,8,0,0,0-2.862,15.742l64.386,11.707A20.748,20.748,0,0,1,224,64c0,.2.016.4.03.593a63.963,63.963,0,0,0-18.836,94.329c-.165.328-.33.657-.489.994A64.08,64.08,0,0,1,144,96V72a8,8,0,0,0-16,0V96a80.127,80.127,0,0,0,57.98,76.894c-11.607,11.016-16.1,26.5-17.47,40.431L74.353,184.354a7.991,7.991,0,0,0-4.883.056l-48,16a8,8,0,0,0,5.06,15.18L72.1,200.4l95.916,29.513q.145,36.177,2.083,67.524c-9.785,7.454-20.676,18.34-33.066,30.729-13.481,13.482-25.125,25.126-32.576,35.56-9.824,13.756-11.089,24.842-3.824,32.993l55.6,95.312a8,8,0,0,0,13.821-8.062L122.12,401.8a50.816,50.816,0,0,0,13.294-7.118c10.434-7.452,22.076-19.1,35.559-32.577q2.568-2.568,5.042-5.051a433.144,433.144,0,0,0,8.224,42.883c8.187,32.748,16.583,43.895,17.514,45.058a8.007,8.007,0,0,0,5.443,2.962c.269.026.536.04.8.04a8,8,0,0,0,5.121-1.854,51.05,51.05,0,0,0,7.706-8.873c4.9,16.967,14.066,40.934,29.516,56.384a8,8,0,0,0,11.314,0c15.45-15.45,24.613-39.417,29.516-56.384a51.05,51.05,0,0,0,7.706,8.873A7.993,7.993,0,0,0,304,448c.267,0,.535-.014.8-.04A8.007,8.007,0,0,0,310.247,445c.931-1.163,9.327-12.31,17.514-45.058a432.854,432.854,0,0,0,8.224-42.883c1.65,1.657,3.325,3.334,5.042,5.051,13.483,13.482,25.125,25.125,35.559,32.577A50.832,50.832,0,0,0,389.88,401.8l-47.93,82.166a8,8,0,1,0,13.821,8.062l55.6-95.314c7.263-8.152,6-19.237-3.826-32.991-7.451-10.434-19.1-22.078-32.576-35.56-12.389-12.388-23.281-23.274-33.066-30.729q1.932-31.323,2.083-67.524L439.9,200.4l45.568,15.19a8,8,0,0,0,5.06-15.18ZM256,72a47.991,47.991,0,0,1,40.237,74.161C284.629,137.38,268.738,136,256,136s-28.63,1.381-40.238,10.163A47.994,47.994,0,0,1,256,72Zm32.768,88.887a47.738,47.738,0,0,0-17.356,7.559A48.909,48.909,0,0,0,256,186.3a48.909,48.909,0,0,0-15.412-17.853,47.731,47.731,0,0,0-17.356-7.559C229.314,154.684,239.666,152,256,152S282.686,154.684,288.768,160.887ZM159.658,350.794c-16.409,16.408-41.2,41.2-46.862,35.549-2.452-2.452,1.879-9.4,4.68-13.319,6.681-9.356,18.43-21.105,30.87-33.544,8.178-8.178,16.065-16.063,23.175-22.409q.858,10.187,1.925,19.777C169.161,341.283,164.533,345.92,159.658,350.794Zm49.749,74.911c-2.838-6.509-6.571-16.827-10.28-32.231C186.624,341.546,184,272.651,184,224c0-20.069,5.379-34.206,15.987-42.016A31.2,31.2,0,0,1,216,176a31.2,31.2,0,0,1,16.013,5.982C242.621,189.794,248,203.931,248,224c0,88.054-12.336,140.507-22.684,169C219.513,408.988,213.681,419.391,209.407,425.705ZM256,475.8c-14.838-19.623-21.755-49.366-23.593-58.415,8.19-17.069,17.273-43.168,23.591-81.871,6.318,38.706,15.4,64.807,23.594,81.875C277.763,426.442,270.875,456.153,256,475.8Zm46.56-50.144c-4.271-6.319-10.088-16.711-15.878-32.655C276.336,364.507,264,312.054,264,224c0-20.069,5.379-34.206,15.987-42.016A31.2,31.2,0,0,1,296,176a31.2,31.2,0,0,1,16.013,5.982C322.621,189.794,328,203.931,328,224,328,350.614,311.136,405.794,302.562,425.659Zm61.092-86.179c12.44,12.439,24.189,24.188,30.87,33.544,2.8,3.921,7.132,10.867,4.679,13.319a2.994,2.994,0,0,1-2.22.822c-8.272,0-29.867-21.6-44.706-36.436-4.851-4.85-9.457-9.465-13.723-13.88q1.065-9.6,1.925-19.778C347.588,323.417,355.476,331.3,363.654,339.48Z"/></svg>
