<svg height="512pt" viewBox="0 0 512 511" width="512pt" xmlns="http://www.w3.org/2000/svg"><path d="m357.058594 410.761719c0-55.929688-79.929688-101.269531-178.53125-101.269531-98.597656 0-178.527344 45.339843-178.527344 101.269531 0 55.925781 79.929688 101.265625 178.527344 101.265625 98.601562 0 178.53125-45.339844 178.53125-101.265625zm0 0" fill="#67c1b0"/><g fill="#84d3c4"><path d="m178.527344 482.429688c-25.527344 0-49.867188-4.601563-70.378906-13.300782-3.992188-1.695312-5.855469-6.304687-4.164063-10.292968 1.695313-3.992188 6.304687-5.855469 10.292969-4.164063 18.59375 7.886719 40.8125 12.054687 64.25 12.054687 56.734375 0 104.660156-25.628906 104.660156-55.964843 0-3.773438-.742188-7.554688-2.214844-11.238281-1.605468-4.027344.355469-8.59375 4.386719-10.199219 4.023437-1.605469 8.59375.355469 10.199219 4.382812 2.210937 5.542969 3.332031 11.28125 3.332031 17.054688 0 19.996093-13.117187 38.445312-36.929687 51.953125-22.414063 12.714844-52.042969 19.714844-83.433594 19.714844zm0 0"/><path d="m74.882812 443.476562c-2.390624 0-4.753906-1.089843-6.296874-3.15625-6.914063-9.261718-10.417969-19.207031-10.417969-29.558593 0-19.996094 13.117187-38.449219 36.929687-51.957031 22.414063-12.710938 52.042969-19.714844 83.429688-19.714844 27.917968 0 55.058594 5.699218 76.425781 16.042968 3.90625 1.890626 5.535156 6.585938 3.644531 10.488282-1.886718 3.902344-6.585937 5.535156-10.484375 3.644531-19.277343-9.332031-43.992187-14.472656-69.585937-14.472656-56.730469 0-104.660156 25.628906-104.660156 55.96875 0 6.890625 2.457031 13.679687 7.300781 20.167969 2.59375 3.472656 1.878906 8.390624-1.597657 10.984374-1.40625 1.054688-3.054687 1.5625-4.6875 1.5625zm0 0"/><path d="m178.527344 443.210938c-28.71875 0-51.21875-14.253907-51.21875-32.449219 0-18.195313 22.496094-32.449219 51.21875-32.449219 12.921875 0 25.1875 2.921875 34.542968 8.226562 3.769532 2.136719 5.09375 6.929688 2.953126 10.699219-2.136719 3.773438-6.929688 5.097657-10.699219 2.957031-6.929688-3.929687-16.695313-6.183593-26.796875-6.183593-20.328125 0-35.519532 8.84375-35.519532 16.75s15.191407 16.75 35.519532 16.75c10.101562 0 19.867187-2.253907 26.796875-6.183594 3.769531-2.140625 8.558593-.816406 10.699219 2.957031 2.140624 3.769532.816406 8.558594-2.953126 10.699219-9.355468 5.304687-21.621093 8.226563-34.542968 8.226563zm0 0"/></g><path d="m512 207.003906c0-45.589844-65.152344-82.542968-145.519531-82.542968-80.367188 0-145.519531 36.953124-145.519531 82.542968 0 45.585938 65.152343 82.539063 145.519531 82.539063 80.367187 0 145.519531-36.953125 145.519531-82.539063zm0 0" fill="#67c1b0"/><path d="m361.304688 234.90625c-10.777344 0-21.03125-2.449219-28.871094-6.894531-3.769532-2.140625-5.09375-6.933594-2.957032-10.703125 2.140626-3.769532 6.929688-5.09375 10.703126-2.957032 5.433593 3.082032 13.136718 4.851563 21.125 4.851563 16.785156 0 27.5-7.226563 27.5-12.199219 0-4.976562-10.714844-12.203125-27.5-12.203125-7.992188 0-15.691407 1.765625-21.125 4.851563-3.769532 2.136718-8.5625.8125-10.703126-2.957032-2.136718-3.769531-.816406-8.5625 2.957032-10.703124 7.839844-4.445313 18.089844-6.894532 28.867187-6.894532 24.226563 0 43.203125 12.257813 43.203125 27.90625 0 15.644532-18.976562 27.902344-43.199218 27.902344zm0 0" fill="#84d3c4"/><path d="m431.320312 178.070312c-1.3125 0-2.644531-.328124-3.867187-1.023437-16.160156-9.164063-37.8125-14.214844-60.972656-14.214844-10.570313 0-20.886719 1.058594-30.660157 3.148438-4.242187.90625-8.410156-1.800781-9.316406-6.039063-.90625-4.242187 1.796875-8.414062 6.039063-9.316406 10.851562-2.316406 22.269531-3.492188 33.9375-3.492188 25.832031 0 50.238281 5.773438 68.71875 16.257813 3.773437 2.136719 5.09375 6.929687 2.957031 10.703125-1.445312 2.546875-4.101562 3.976562-6.835938 3.976562zm0 0" fill="#84d3c4"/><path d="m366.480469 266.871094c-55.824219 0-99.558594-26.296875-99.558594-59.867188 0-4.335937 3.515625-7.851562 7.851563-7.851562 4.335937 0 7.851562 3.515625 7.851562 7.851562 0 23.941406 38.402344 44.167969 83.855469 44.167969s83.855469-20.226563 83.855469-44.167969c0-5.296875-1.898438-10.53125-5.648438-15.558594-2.589844-3.476562-1.875-8.394531 1.601562-10.984374 3.472657-2.59375 8.394532-1.875 10.984376 1.597656 5.816406 7.800781 8.765624 16.191406 8.765624 24.945312 0 33.570313-43.730468 59.867188-99.558593 59.867188zm0 0" fill="#84d3c4"/><path d="m69.375 169.769531c-19.109375 10.15625-32.125 30.253907-32.125 53.398438 0 .726562.015625 1.445312.039062 2.164062 1.425782 40.613281 62.742188 40.613281 64.171876 0 .023437-.71875.035156-1.4375.035156-2.164062 0-23.144531-13.015625-43.242188-32.121094-53.398438zm0 0" fill="#67c1b0"/><path d="m69.375 255.800781c-15.679688 0-31.371094-10.15625-32.082031-30.472656-.03125-.710937-.042969-1.433594-.042969-2.15625 0-23.140625 13.023438-43.25 32.125-53.402344-7.570312 10.152344-12.730469 30.261719-12.730469 53.402344 0 .722656 0 1.445313.011719 2.15625.28125 20.316406 6.5 30.472656 12.71875 30.472656zm0 0" fill="#51a2af"/><path d="m181.207031.5c-19.109375 10.15625-32.125 30.253906-32.125 53.402344 0 .722656.015625 1.441406.039063 2.160156 1.425781 40.613281 62.742187 40.613281 64.171875 0 .023437-.71875.035156-1.4375.035156-2.160156 0-23.148438-13.015625-43.246094-32.121094-53.402344zm0 0" fill="#67c1b0"/><path d="m181.207031 86.53125c-15.679687 0-31.371093-10.152344-32.082031-30.46875-.03125-.714844-.042969-1.4375-.042969-2.15625 0-23.144531 13.023438-43.253906 32.125-53.40625-7.566406 10.152344-12.730469 30.261719-12.730469 53.40625 0 .71875 0 1.441406.011719 2.15625.28125 20.316406 6.5 30.46875 12.71875 30.46875zm0 0" fill="#51a2af"/><path d="m438.539062 7.890625c-19.109374 10.15625-32.125 30.253906-32.125 53.402344 0 .722656.011719 1.441406.039063 2.160156 1.425781 40.613281 62.742187 40.613281 64.171875 0 .023438-.71875.035156-1.4375.035156-2.160156 0-23.148438-13.015625-43.246094-32.121094-53.402344zm0 0" fill="#67c1b0"/><path d="m438.539062 93.921875c-15.679687 0-31.371093-10.152344-32.082031-30.46875-.03125-.714844-.042969-1.433594-.042969-2.15625 0-23.144531 13.019532-43.253906 32.125-53.40625-7.570312 10.152344-12.730468 30.261719-12.730468 53.40625 0 .722656 0 1.441406.011718 2.15625.28125 20.316406 6.5 30.46875 12.71875 30.46875zm0 0" fill="#51a2af"/></svg>