<svg id="Capa_1" enable-background="new 0 0 512 512" height="512" viewBox="0 0 512 512" width="512" xmlns="http://www.w3.org/2000/svg"><g><g><path d="m160 193h-96c-8.28 0-15 6.72-15 15v64c0 8.28 6.72 15 15 15h96c8.28 0 15-6.72 15-15v-64c0-8.28-6.72-15-15-15z" fill="#48578b"/></g><g><path d="m160 287h-48v-94h48c8.28 0 15 6.72 15 15v64c0 8.28-6.72 15-15 15z" fill="#223c66"/></g><g><g><path d="m223 317c0-33.08-26.92-60-60-60h-103c-33.08 0-60 26.92-60 60v4s43.89 57.3 0 126v50c0 8.28 6.72 15 15 15h193c8.28 0 15-6.72 15-15v-50c-45.4-62.84 0-126 0-126z" fill="#c6865c"/></g></g><path d="m223 321s-45.4 63.16 0 126v50c0 8.28-6.72 15-15 15h-96v-255h51c33.08 0 60 26.92 60 60z" fill="#af705c"/><g><g><path d="m0 321v126h223v-126z" fill="#fff16b"/></g></g><path d="m112 321h111v126h-111z" fill="#ffd845"/><g><path d="m503.72 48.28-55.72 55.72-40-40 55.72-55.72c11.04-11.04 28.95-11.04 40 0 11.04 11.05 11.04 28.96 0 40z" fill="#ebf2fc"/></g><g><path d="m503.72 48.28-55.72 55.72-20-20 75.72-75.72c11.04 11.05 11.04 28.96 0 40z" fill="#d5e7fd"/></g><g><path d="m474.61 130.61c-2.93 2.93-6.77 4.39-10.61 4.39s-7.68-1.46-10.61-4.39l-72-72c-5.85-5.86-5.85-15.36 0-21.22 5.86-5.85 15.36-5.85 21.22 0l72 72c5.85 5.86 5.85 15.36 0 21.22z" fill="#d5e7fd"/></g><g><path d="m474.61 130.61c-2.93 2.93-6.77 4.39-10.61 4.39s-7.68-1.46-10.61-4.39l-36-36 21.22-21.22 36 36c5.85 5.86 5.85 15.36 0 21.22z" fill="#b7d8fa"/></g><g><path d="m332.98 281.85c-8.21-14.14-16.3-25.88-16.64-26.38-2.8-4.05-7.41-6.47-12.34-6.47s-9.54 2.42-12.34 6.47c-.34.5-8.43 12.24-16.64 26.38-16.15 27.85-18.02 39.68-18.02 46.15 0 25.92 21.08 47 47 47s47-21.08 47-47c0-6.47-1.87-18.3-18.02-46.15z" fill="#c6865c"/></g><path d="m351 328c0 25.92-21.08 47-47 47v-126c4.93 0 9.54 2.42 12.34 6.47.34.5 8.43 12.24 16.64 26.38 16.15 27.85 18.02 39.68 18.02 46.15z" fill="#af705c"/><g><path d="m437.39 114.61-54.69 54.69c-8.24 8.24-17.3 15.54-27.04 21.81s-20.15 11.51-31.06 15.6c-6.03 2.26-11.99.45-15.87-3.44-3.89-3.88-5.7-9.84-3.44-15.87 8.18-21.82 20.94-41.63 37.41-58.1l54.69-54.69z" fill="#ebf2fc"/></g><g><path d="m437.39 114.61-54.69 54.69c-8.24 8.24-17.3 15.54-27.04 21.81s-20.15 11.51-31.06 15.6c-6.03 2.26-11.99.45-15.87-3.44l108.66-108.66z" fill="#d5e7fd"/></g></g></svg>