<svg id="Layer_1" height="512" viewBox="0 0 512 512" width="512" xmlns="http://www.w3.org/2000/svg" data-name="Layer 1"><path d="m466.72 153.28a2.291 2.291 0 0 1 -2.57 3.56l-41.8-14.79-15.14-21.42-8.9 15.81-109-7.57a16.755 16.755 0 0 0 -26.7-.13 18.371 18.371 0 0 0 -5.22-24.25c116.82-58.52 191.28 25.04 209.33 48.79z" fill="#5fcda4"/><path d="m403.28 226.2a3.043 3.043 0 0 1 -4.2 3.47l-53.35-23.82-2.31-22.01-13.7 7.26-70.41-21.92a17.064 17.064 0 0 0 2.93-20.2 16.8 16.8 0 0 0 30.42-11.46 16.953 16.953 0 0 0 -1.64-5.85c81.58 17.3 107.93 75.75 112.26 94.53z" fill="#4ca987"/><path d="m382.82 17.01a2.736 2.736 0 0 1 1.37 4.92l-47.19 22.68c-1.83.58 1.97 11.82.54 12.66l-80.15 47.22a18.019 18.019 0 0 0 -7.67-3.12l.01-.03c-6.58-91.07 103.94-86.98 133.09-84.33z" fill="#4ca987"/><path d="m261.37 130.6a15.42 15.42 0 0 1 1.24-1.86 16.7 16.7 0 0 1 -1.24 1.86z" fill="#d4e1f4"/><path d="m262.24 148.98a16.244 16.244 0 0 1 -1.09-1.73 16.244 16.244 0 0 1 1.09 1.73z" fill="#d4e1f4"/><path d="m259.31 169.18s-7.12 115.59-3.31 260.71h-55.53c5.71-73.04 22.11-196.21 37.66-258.7a16.748 16.748 0 0 0 21.18-2.01z" fill="#b79283"/><path d="m249.73 101.34-.01.03a17.669 17.669 0 0 0 -4.49-.13 18.12 18.12 0 0 0 -15.05 11.17h-.01l-77.46-39.85 4.91-11.06-33.91-3.93-21.75-10.47a2.2 2.2 0 0 1 .34-4.1c25.9-7.46 136.66-33.78 147.43 58.34z" fill="#5fcda4"/><path d="m245.89 140.24a16.753 16.753 0 0 0 -12.48 7.58 17.091 17.091 0 0 0 -2.18-16.86l1.3-.37a18.091 18.091 0 0 0 28.84.01 17.037 17.037 0 0 0 -.22 16.65 16.739 16.739 0 0 0 -15.26-7.01z" fill="#4ca987"/><path d="m238.13 171.19-68.83 44.36-14.82-4.55 1.86 22.06-31.1 22.93a1.834 1.834 0 0 1 -2.91-1.32c-1.36-15.1-2.22-80.31 78.76-114.44a16.679 16.679 0 0 0 .04 2.64 16.791 16.791 0 0 0 30.84 7.67 17.05 17.05 0 0 0 6.16 20.65z" fill="#5fcda4"/><path d="m232.53 130.59-1.3.37a16.783 16.783 0 0 0 -29.89 7.21h-.01l-90.57 24.65-10.98-5.89-11.58 15.93-41.46 24.3a1.288 1.288 0 0 1 -1.85-1.58c7.8-19.95 54.08-120.14 185.28-83.17h.01a18.406 18.406 0 0 0 2.35 18.18z" fill="#4ca987"/><path d="m233.41 147.82a17.239 17.239 0 0 1 -1.44 2.72 17.239 17.239 0 0 1 1.44-2.72z" fill="#d4e1f4"/><path d="m259.31 169.18a16.748 16.748 0 0 1 -21.18 2.01c-15.55 62.49-31.95 185.66-37.66 258.7h26c4.939-63.175 17.875-163.845 31.341-230.324.824-19.41 1.499-30.386 1.499-30.386z" fill="#937367"/><path d="m405.52 485.21a133.717 133.717 0 0 0 -108.29-55.32h-137.83a133.722 133.722 0 0 0 -108.29 55.32 6.8 6.8 0 0 0 5.49 10.79h343.43a6.8 6.8 0 0 0 6.8-6.82 6.712 6.712 0 0 0 -1.31-3.97z" fill="#908c85"/><path d="m77.11 485.21a133.722 133.722 0 0 1 108.29-55.32h-26a133.722 133.722 0 0 0 -108.29 55.32 6.8 6.8 0 0 0 5.49 10.79h26a6.8 6.8 0 0 1 -5.49-10.79z" fill="#68645e"/><path d="m127.335 57.99c32.185-6.936 92.062-13.369 118.77 25.9-22.08-71.1-119.7-47.839-143.8-40.895a2.2 2.2 0 0 0 -.34 4.1l21.75 10.47z" fill="#52a382"/><path d="m201.13 142.87a16.679 16.679 0 0 1 -.04-2.64c-80.98 34.13-80.12 99.34-78.76 114.44a1.834 1.834 0 0 0 2.91 1.32l6.858-5.056c3.809-26.374 19.577-66.774 77.2-91.366.122-.053 2.029-.848 4.51-1.867a16.922 16.922 0 0 1 -12.678-14.831z" fill="#52a382"/><path d="m211.868 125.454a16.638 16.638 0 0 1 17.467 3.42c.8.189 1.593.378 2.4.577a18.4 18.4 0 0 1 -1.552-17.041h-.01c-131.203-36.97-177.483 63.22-185.283 83.17a1.288 1.288 0 0 0 1.85 1.58l24.36-14.278c21.546-30.825 64.388-69.073 140.768-57.428z" fill="#36775c"/><path d="m289.31 128.87a16.249 16.249 0 0 1 1.71 2.8 16.977 16.977 0 0 1 -13.51 24.32 16.767 16.767 0 0 1 -15.27-7.01 16.244 16.244 0 0 0 -1.09-1.73 17.037 17.037 0 0 1 .22-16.65 16.7 16.7 0 0 0 1.24-1.86 16.755 16.755 0 0 1 26.7.13z" fill="#8dc63f"/><path d="m265.04 117.73a18.282 18.282 0 0 1 -2.43 11.01 15.42 15.42 0 0 0 -1.24 1.86 18.221 18.221 0 1 1 -16.14-29.36 17.669 17.669 0 0 1 4.49.13 18.019 18.019 0 0 1 7.67 3.12 18.261 18.261 0 0 1 7.65 13.24z" fill="#739937"/><path d="m264.23 155.52a17 17 0 0 1 -4.92 13.66 16.748 16.748 0 0 1 -21.18 2.01 17.05 17.05 0 0 1 -6.16-20.65 17.239 17.239 0 0 0 1.44-2.72 16.744 16.744 0 0 1 27.74-.57 16.244 16.244 0 0 0 1.09 1.73 16.875 16.875 0 0 1 1.99 6.54z" fill="#689b2d"/><path d="m234.63 139.68a17.056 17.056 0 0 1 -1.22 8.14 17.239 17.239 0 0 0 -1.44 2.72 16.839 16.839 0 0 1 -30.88-10.31 15.455 15.455 0 0 1 .24-2.06h.01a16.815 16.815 0 0 1 33.29 1.51z" fill="#8dc63f"/><g fill="#f4f8fc"><path d="m189.278 483.215h-10.143a6 6 0 1 1 0-12h10.143a6 6 0 0 1 0 12z"/><path d="m162.538 483.215h-51.638a6 6 0 1 1 0-12h51.636a6 6 0 0 1 0 12z"/></g></svg>