<?xml version="1.0" encoding="iso-8859-1"?>
<!-- Generator: Adobe Illustrator 19.0.0, SVG Export Plug-In . SVG Version: 6.00 Build 0)  -->
<svg version="1.1" id="Capa_1" xmlns="http://www.w3.org/2000/svg" xmlns:xlink="http://www.w3.org/1999/xlink" x="0px" y="0px"
	 viewBox="0 0 511.999 511.999" style="enable-background:new 0 0 511.999 511.999;" xml:space="preserve">
<path style="fill:#FEA832;" d="M483.782,413.406L261,221.016h-0.01l-39.982,39.982v0.01L413.398,483.79
	c18.76,22.805,53.099,24.474,73.984,3.6C508.247,466.514,506.597,432.173,483.782,413.406z"/>
<path style="fill:#F8ECFF;" d="M248.939,107.52c39.138,39.138,38.968,102.46,0,141.428c-39.07,39.07-102.387,39.041-141.428,0
	l-91.655-91.655c-7.81-7.81-7.81-20.471,0-28.292c7.788-7.807,20.481-7.82,28.282,0v0.01l77.514,77.504
	c7.81,7.81,20.471,7.81,28.282,0s7.81-20.471,0-28.282l-77.504-77.514c-7.81-7.81-7.81-20.471,0-28.282s20.471-7.81,28.282,0
	l77.514,77.504c7.81,7.81,20.471,7.81,28.282,0s7.81-20.471,0-28.282l-77.514-77.514c-7.81-7.81-7.81-20.471,0-28.282
	c7.866-7.845,20.509-7.782,28.292,0L248.939,107.52z"/>
<path d="M423.738,423.747c3.9-3.91,3.9-10.241,0-14.151c-3.91-3.9-10.241-3.9-14.151,0c-3.9,3.91-3.9,10.241,0,14.151
	C413.498,427.647,419.828,427.647,423.738,423.747z"/>
<path d="M128.723,199.443l-77.409-77.398c-0.033-0.034-0.062-0.072-0.095-0.106c-11.703-11.733-30.727-11.748-42.438-0.005
	c-11.691,11.705-11.689,30.739,0.004,42.429l91.654,91.656c33.403,33.401,82.639,40.743,123.113,22.456l182.196,211.757
	c22.617,27.379,63.828,29.09,88.704,4.231c0.001-0.001,0.001-0.001,0.002-0.002c0,0,0,0,0-0.001l0.001-0.001
	c24.929-24.942,23.052-66.172-4.233-88.704L278.465,223.558c18.244-40.494,10.96-89.696-22.454-123.11L164.355,8.793
	c-11.622-11.621-30.575-11.828-42.434,0c-11.724,11.724-11.726,30.7,0,42.425l77.514,77.513c3.897,3.898,3.897,10.242,0,14.14
	c-3.908,3.907-10.229,3.908-14.14,0l-77.513-77.504c-11.724-11.724-30.698-11.727-42.425,0c-11.696,11.697-11.696,30.728,0,42.423
	l77.505,77.515c3.909,3.909,3.907,10.229-0.001,14.139C138.954,203.351,132.634,203.353,128.723,199.443z M477.258,420.987
	c16.642,14.347,18.459,35.691,9.227,51.364l-34.465-34.464c-3.906-3.905-10.237-3.905-14.144,0c-3.905,3.905-3.905,10.238,0,14.143
	l34.464,34.463c-16.658,9.814-38.493,6.418-51.222-9.057c-0.046-0.057-0.094-0.113-0.142-0.168L241.262,268.394
	c5.242-3.672,10.179-7.806,14.748-12.375c4.569-4.569,8.704-9.506,12.376-14.748L477.258,420.987z M157.005,171.163L79.501,93.649
	c-3.897-3.898-3.897-10.241,0-14.139c3.907-3.907,10.229-3.908,14.14,0l77.513,77.504c11.725,11.723,30.699,11.727,42.425,0
	c11.696-11.697,11.696-30.728,0-42.424l-77.514-77.514c-3.93-3.93-3.882-10.257-0.01-14.129c3.938-3.928,10.253-3.916,14.158-0.009
	l91.654,91.655c34.643,34.642,35.452,91.839,0,127.285c-34.686,34.686-91.666,35.619-127.284,0l-91.655-91.655
	c-3.897-3.898-3.896-10.247,0.011-14.158c3.851-3.862,10.074-3.881,13.956-0.16c0.024,0.025,0.05,0.046,0.074,0.071
	c0.034,0.035,0.063,0.074,0.099,0.109l77.514,77.503c11.725,11.725,30.698,11.726,42.424,0
	C168.73,201.862,168.732,182.888,157.005,171.163z"/>
<g>
</g>
<g>
</g>
<g>
</g>
<g>
</g>
<g>
</g>
<g>
</g>
<g>
</g>
<g>
</g>
<g>
</g>
<g>
</g>
<g>
</g>
<g>
</g>
<g>
</g>
<g>
</g>
<g>
</g>
</svg>
